<?xml version="1.0" encoding="utf-8"?>
<!-- Generator: Adobe Illustrator 24.1.2, SVG Export Plug-In . SVG Version: 6.00 Build 0)  -->
<svg version="1.1" id="Layer_1" xmlns="http://www.w3.org/2000/svg" xmlns:xlink="http://www.w3.org/1999/xlink" x="0px" y="0px"
	 viewBox="0 0 95 95" style="enable-background:new 0 0 95 95;" xml:space="preserve">
<style type="text/css">
	.st0{fill:#005A98;}
	.st1{fill:#0083C4;}
	.st2{opacity:0.24;fill:#FED8BA;}
</style>
<g>
	
		<ellipse transform="matrix(0.3938 -0.9192 0.9192 0.3938 -14.9752 72.2132)" class="st0" cx="47.3" cy="47.5" rx="46.7" ry="46.7"/>
	
		<ellipse transform="matrix(2.045623e-02 -0.9998 0.9998 2.045623e-02 2.0352 90.6168)" class="st1" cx="47.3" cy="44.3" rx="43.5" ry="43.5"/>
	<circle class="st2" cx="44" cy="36.7" r="32.1"/>
	<ellipse transform="matrix(0.2438 -0.9698 0.9698 0.2438 6.6949 58.6338)" class="st2" cx="40.9" cy="25" rx="14.3" ry="14.3"/>
	<path class="st2" d="M33.8,44.2c0,4-3.2,7.2-7.2,7.2c-4,0-7.2-3.2-7.2-7.2c0-3.9,3.2-7.2,7.2-7.2C30.6,37.1,33.8,40.3,33.8,44.2z"
		/>
</g>
</svg>
