<?xml version="1.0" encoding="utf-8"?>
<!-- Generator: Adobe Illustrator 24.1.2, SVG Export Plug-In . SVG Version: 6.00 Build 0)  -->
<svg version="1.1" id="Layer_1" xmlns="http://www.w3.org/2000/svg" xmlns:xlink="http://www.w3.org/1999/xlink" x="0px" y="0px"
	 viewBox="0 0 403 402" style="enable-background:new 0 0 403 402;" xml:space="preserve">
<style type="text/css">
	.st0{fill:#CCCCCC;}
	.st1{fill:#B3B3B3;}
	.st2{fill:url(#SVGID_1_);}
	.st3{fill:url(#SVGID_2_);}
	.st4{fill:url(#SVGID_3_);}
	.st5{fill:url(#SVGID_4_);}
	.st6{fill:url(#SVGID_5_);}
	.st7{fill:url(#SVGID_6_);}
	.st8{fill:url(#SVGID_7_);}
	.st9{fill:url(#SVGID_8_);}
</style>
<g>
	<g>
		<g>
			<g>
				<path class="st0" d="M342.33,342.06c36.05-36.05,58.35-85.85,58.35-140.86c0-55.02-22.3-104.82-58.35-140.87
					C306.28,24.27,256.48,1.97,201.46,1.97c-55.01,0-104.81,22.3-140.87,58.35l-0.01,0.01C24.54,96.39,2.24,146.19,2.24,201.2
					c0,55.01,22.3,104.81,58.35,140.86c36.05,36.05,85.85,58.35,140.87,58.35c55.01,0,104.81-22.3,140.86-58.34L342.33,342.06z"/>
			</g>
			<path class="st1" d="M66.06,336.72l18.86-0.29c28.13,24.28,63.92,39.93,103.26,42.84l13.41,13.55l13.12-13.54
				c39.34-2.87,75.14-18.48,103.29-42.73l19.08,0.1l-0.29-18.86c24.28-28.13,39.93-63.92,42.84-103.25l13.55-13.41L379.64,188
				c-2.87-39.34-18.48-75.14-42.72-103.29l0.1-19.07l-18.86,0.29C290.02,41.64,254.23,26,214.9,23.09L201.49,9.54l-13.13,13.54
				c-39.34,2.87-75.14,18.48-103.3,42.73l-19.07-0.1l0.29,18.86c-24.28,28.13-39.93,63.92-42.84,103.26L9.9,201.23l13.54,13.13
				c2.87,39.34,18.48,75.14,42.73,103.3L66.06,336.72z"/>
			<g>
				<g>
					<g>
					</g>
					<g>
					</g>
					<g>
					</g>
					<g>
					</g>
					<g>
					</g>
					<g>
					</g>
					<g>
					</g>
					<g>
					</g>
				</g>
				<g>
					<radialGradient id="SVGID_1_" cx="26.3855" cy="129.5974" r="4.9619" gradientUnits="userSpaceOnUse">
						<stop  offset="5.376340e-03" style="stop-color:#FFFFBB"/>
						<stop  offset="1" style="stop-color:#E1B141"/>
					</radialGradient>
					<circle class="st2" cx="26.39" cy="129.6" r="4.96"/>
					<radialGradient id="SVGID_2_" cx="376.8503" cy="273.0598" r="4.9619" gradientUnits="userSpaceOnUse">
						<stop  offset="5.376340e-03" style="stop-color:#FFFFBB"/>
						<stop  offset="1" style="stop-color:#E1B141"/>
					</radialGradient>
					<path class="st3" d="M376.85,268.1c-2.74,0-4.96,2.23-4.96,4.96c0,2.74,2.23,4.96,4.96,4.96c2.74,0,4.96-2.22,4.96-4.96
						C381.81,270.32,379.59,268.1,376.85,268.1z"/>
					<radialGradient id="SVGID_3_" cx="26.9875" cy="274.5149" r="4.9606" gradientUnits="userSpaceOnUse">
						<stop  offset="5.376340e-03" style="stop-color:#FFFFBB"/>
						<stop  offset="1" style="stop-color:#E1B141"/>
					</radialGradient>
					<path class="st4" d="M26.99,269.55c-1.33,0-2.57,0.52-3.51,1.45c-1.93,1.94-1.93,5.08,0,7.02c0.94,0.94,2.18,1.45,3.51,1.45
						c1.33,0,2.57-0.52,3.51-1.45c1.93-1.94,1.93-5.08,0-7.02C29.56,270.07,28.31,269.55,26.99,269.55z"/>
					<radialGradient id="SVGID_4_" cx="376.2467" cy="128.1425" r="4.9612" gradientUnits="userSpaceOnUse">
						<stop  offset="5.376340e-03" style="stop-color:#FFFFBB"/>
						<stop  offset="1" style="stop-color:#E1B141"/>
					</radialGradient>
					<path class="st5" d="M376.25,133.1c1.33,0,2.57-0.52,3.51-1.45c1.93-1.94,1.93-5.08,0-7.02c-0.94-0.94-2.18-1.45-3.51-1.45
						c-1.33,0-2.57,0.52-3.51,1.45c-0.94,0.94-1.45,2.18-1.45,3.51c0,1.33,0.52,2.57,1.45,3.51
						C373.68,132.59,374.92,133.1,376.25,133.1z"/>
					<radialGradient id="SVGID_5_" cx="129.886" cy="376.5607" r="4.9612" gradientUnits="userSpaceOnUse">
						<stop  offset="5.376340e-03" style="stop-color:#FFFFBB"/>
						<stop  offset="1" style="stop-color:#E1B141"/>
					</radialGradient>
					<path class="st6" d="M129.89,371.6c-2.74,0-4.96,2.22-4.96,4.96c0,2.74,2.23,4.96,4.96,4.96c1.33,0,2.57-0.52,3.51-1.45
						c0.94-0.94,1.45-2.19,1.45-3.51C134.85,373.82,132.62,371.6,129.89,371.6z"/>
					<radialGradient id="SVGID_6_" cx="273.3493" cy="26.0964" r="4.9619" gradientUnits="userSpaceOnUse">
						<stop  offset="5.376340e-03" style="stop-color:#FFFFBB"/>
						<stop  offset="1" style="stop-color:#E1B141"/>
					</radialGradient>
					<path class="st7" d="M273.35,31.06L273.35,31.06c2.74,0,4.96-2.23,4.96-4.96c0-2.74-2.23-4.96-4.96-4.96
						c-2.74,0-4.96,2.23-4.96,4.96C268.39,28.83,270.61,31.06,273.35,31.06z"/>
					<radialGradient id="SVGID_7_" cx="274.8033" cy="375.9563" r="4.9614" gradientUnits="userSpaceOnUse">
						<stop  offset="5.376340e-03" style="stop-color:#FFFFBB"/>
						<stop  offset="1" style="stop-color:#E1B141"/>
					</radialGradient>
					<path class="st8" d="M274.81,370.99c-1.33,0-2.57,0.52-3.51,1.45c-0.94,0.94-1.45,2.18-1.45,3.51c0,1.32,0.52,2.57,1.45,3.51
						c0.94,0.94,2.18,1.45,3.51,1.45c1.32,0,2.57-0.52,3.51-1.45c1.93-1.94,1.93-5.08,0-7.02
						C277.37,371.51,276.13,370.99,274.81,370.99z"/>
					<radialGradient id="SVGID_8_" cx="128.4323" cy="26.6984" r="4.9604" gradientUnits="userSpaceOnUse">
						<stop  offset="5.376340e-03" style="stop-color:#FFFFBB"/>
						<stop  offset="1" style="stop-color:#E1B141"/>
					</radialGradient>
					<path class="st9" d="M131.94,30.21c1.93-1.93,1.93-5.08,0-7.02c-0.94-0.94-2.18-1.45-3.51-1.45c-1.33,0-2.57,0.52-3.51,1.45
						c-1.93,1.93-1.93,5.08,0,7.02c0.94,0.94,2.18,1.45,3.51,1.45C129.76,31.66,131,31.14,131.94,30.21z"/>
				</g>
			</g>
			<g>
				<g>
					<g>
					</g>
					<g>
					</g>
				</g>
				<g>
				</g>
				<g>
				</g>
			</g>
			<g>
			</g>
			<g>
				<g>
					<path class="st1" d="M201.46,401.86C201.46,401.86,201.46,401.86,201.46,401.86c-53.6,0-104-20.87-141.9-58.78
						C21.69,305.21,0.82,254.86,0.79,201.29l0-0.11C0.8,147.58,21.67,97.19,59.57,59.3c37.9-37.9,88.29-58.77,141.88-58.77
						c53.62,0,104.01,20.87,141.91,58.77c37.9,37.9,58.77,88.28,58.78,141.88l0,0.11c-0.02,53.57-20.89,103.92-58.77,141.81
						C305.46,380.99,255.06,401.86,201.46,401.86z M3.69,201.08l0,0.11c0,52.83,20.57,102.49,57.92,139.84
						c37.36,37.36,87.02,57.93,139.84,57.93c52.83,0,102.49-20.57,139.85-57.93c37.35-37.35,57.92-87.02,57.92-139.84l0-0.1
						c-0.03-52.79-20.6-102.41-57.92-139.74C303.95,24,254.29,3.43,201.48,3.43C148.63,3.43,98.97,24,61.62,61.35
						C24.29,98.68,3.72,148.3,3.69,201.08z"/>
				</g>
			</g>
		</g>
	</g>
</g>
</svg>
